<svg
  xmlns="http://www.w3.org/2000/svg"
  version="1.2"
  baseProfile="tiny"
  id="logo"
  x="50%"
  y="50%"
  width="62px"
  height="62px"
  viewBox="0 0 100 100"
  className="loading"
  >
  <path
      fill="#E51E26"
      d="M16.57,77.1l18.65-19.87c0,0-7.34-10.09,3.06-20.48c0,0,5.5-8.56,20.18-1.53l17.73-18.04
c0,0-30.57-18.65-57.17,3.06c0,0-21.71,14.98-11.31,44.94C7.71,65.18,10.76,73.43,16.57,77.1z"
  />
  <path
      fill="#E51E26"
      d="M24.22,84.44l18.34-18.96c0,0,27.21,8.14,22.93-22.07L85.06,23.6c0,0,22.62,27.21,0,51.97
C85.06,75.57,66.1,101.56,24.22,84.44z"
  />
</svg>